<svg height="512pt" viewBox="-4 0 512 512" width="512pt" xmlns="http://www.w3.org/2000/svg"><path d="m431.34375 236.460938v15.03125h56.839844l-10.953125 112.21875h-46.933594l-1.765625-16.503907-31.785156-34.480469-44.542969 11.503907-30.308594 22.238281-1.238281 17.242188h-45.417969l-10.957031-112.21875h152.03125v-15.03125h-168.597656l21.308594 218.292968v57.246094h214.417968v-57.246094l21.3125-218.292968zm-94.953125 118.015624 22.375-16.414062 33.027344-8.535156 22.324219 24.214844 4.289062 40.085937-25.933594 19.449219-33.90625-7.003906-24.632812-17.664063zm-52.335937 142.492188v-35.066406h46.589843v-15.03125h-47.285156l-6.652344-68.132813h42.871094l-1.238281 17.183594 34.0625 24.421875 43.667968 9.023438 38.191407-28.640626-2.355469-21.988281h43.859375l-6.652344 68.132813h-123.4375v15.03125h122.738281v35.066406zm0 0"/><path d="m223.4375 235.519531c0-2.269531-.070312-4.566406-.210938-6.839843l-10.027343-160.671876-15 .9375 3.203125 51.289063h-179.367188l6.566406-105.203125h166.230469l2.429688 38.914062 15-.9375-3.304688-53.007812h-194.476562l-14.273438 228.691406c-.1367185 2.261719-.207031 4.558594-.207031 6.828125 0 9.367188 1.183594 18.683594 3.511719 27.691407l14.550781-3.765626c-2.011719-7.78125-3.03125-15.828124-3.03125-23.925781 0-1.964843.058594-3.957031.175781-5.902343l5.890625-94.351563h181.242188l5.886718 94.339844c.121094 1.957031.179688 3.949219.179688 5.914062 0 53.003907-43.371094 96.128907-96.6875 96.128907-39.042969 0-74.054688-23.164063-89.191406-59.015626l-13.847656 5.847657c14.515624 34.371093 44.832031 58.632812 80.496093 65.90625v122.523437h-32.5625c-20.71875 0-37.574219 16.855469-37.574219 37.574219v7.515625h185.359376v-7.515625c0-20.71875-16.851563-37.574219-37.570313-37.574219h-32.566406v-122.507812c50.832031-10.402344 89.175781-55.273438 89.175781-108.882813zm-56.613281 246.421875c9.796875 0 18.15625 6.28125 21.257812 15.027344h-152.726562c3.101562-8.746094 11.457031-15.027344 21.253906-15.027344h47.59375v-135.527344c2.488281.167969 4.992187.261719 7.515625.261719s5.027344-.089843 7.515625-.257812v135.523437zm0 0"/><path d="m402.285156 281.550781h-14.957031v-15.03125h14.957031zm-29.984375 0h-15.03125v-15.03125h15.03125zm-30.058593 0h-53.105469v-15.03125h53.105469zm0 0"/><path d="m111.71875 316.617188c-22.394531 0-43.269531-8.820313-58.785156-24.84375l10.796875-10.453126c12.65625 13.070313 29.699219 20.269532 47.988281 20.269532 18.648438 0 35.933594-7.453125 48.667969-20.988282l10.945312 10.300782c-15.605469 16.582031-36.777343 25.714844-59.613281 25.714844zm-69.035156-37.777344c-2.984375-4.664063-5.488282-9.640625-7.4375-14.789063l14.050781-5.328125c1.585937 4.183594 3.617187 8.222656 6.046875 12.015625zm-11.664063-30.800782c-.640625-4.105468-.960937-8.304687-.960937-12.492187 0-1.332031.03125-2.683594.097656-4.011719l15.011719.734375c-.054688 1.085938-.082031 2.1875-.082031 3.28125 0 3.414063.261718 6.835938.78125 10.179688zm0 0"/><path d="m173.652344 45.089844h-14.839844v-15.03125h14.839844zm-29.871094 0h-53.105469v-15.03125h53.105469zm0 0"/></svg>